<svg width="186" height="39" viewBox="0 0 186 39" fill="none" xmlns="http://www.w3.org/2000/svg">
<path d="M0.953125 31.2627V3.0791H10.5234L16.7539 19.8564H16.8906L23.1211 3.0791H32.6914V31.2627H25.4648V14.9346H21.6172L29.6055 3.86035L19.0391 31.2627H14.6055L4.03906 3.86035L12.0273 14.9346H8.17969V31.2627H0.953125ZM35.968 31.2627V9.7002H43.9758V31.2627H35.968ZM39.9719 7.7666C38.8521 7.7666 37.9081 7.389 37.1398 6.63379C36.3846 5.87858 36.007 4.98665 36.007 3.95801C36.007 2.91634 36.3846 2.02441 37.1398 1.28223C37.9081 0.527018 38.8521 0.149414 39.9719 0.149414C41.0917 0.149414 42.0292 0.527018 42.7844 1.28223C43.5526 2.02441 43.9367 2.91634 43.9367 3.95801C43.9367 4.98665 43.5526 5.87858 42.7844 6.63379C42.0292 7.389 41.0917 7.7666 39.9719 7.7666ZM46.7836 31.2627V9.7002H54.7914V13.7041H54.9477C55.4815 12.2458 56.2953 11.139 57.3891 10.3838C58.4828 9.61556 59.8435 9.23145 61.4711 9.23145C63.8409 9.23145 65.6638 9.94759 66.9398 11.3799C68.2289 12.8122 68.8734 14.8239 68.8734 17.415V31.2627H60.8656V19.1729C60.8656 18.0921 60.6117 17.2393 60.1039 16.6143C59.5961 15.9893 58.8409 15.6768 57.8383 15.6768C57.2133 15.6768 56.6729 15.8265 56.2172 16.126C55.7615 16.4255 55.4099 16.8356 55.1625 17.3564C54.9151 17.8773 54.7914 18.4762 54.7914 19.1533V31.2627H46.7836ZM89.9578 38.5674C87.7964 38.5674 85.9148 38.2809 84.3133 37.708C82.7117 37.1351 81.4487 36.3538 80.5242 35.3643C79.6128 34.3747 79.0854 33.2614 78.9422 32.0244L78.9227 31.8486H86.618L86.657 31.9463C86.7872 32.2458 87.1258 32.5713 87.6727 32.9229C88.2325 33.2744 89.0138 33.4502 90.0164 33.4502C91.1753 33.4502 92.0346 33.2028 92.5945 32.708C93.1544 32.2262 93.4344 31.6077 93.4344 30.8525V27.0244H93.2781C92.9526 27.7406 92.4773 28.359 91.8523 28.8799C91.2404 29.3877 90.5047 29.7848 89.6453 30.0713C88.799 30.3447 87.8549 30.4814 86.8133 30.4814C85.0294 30.4814 83.5125 30.0843 82.2625 29.29C81.0125 28.4827 80.062 27.3109 79.4109 25.7744C78.7729 24.238 78.4539 22.363 78.4539 20.1494V20.1299C78.4539 17.7731 78.7794 15.7874 79.4305 14.1729C80.0945 12.5583 81.0516 11.3343 82.3016 10.501C83.5646 9.65462 85.101 9.23145 86.9109 9.23145C87.9266 9.23145 88.851 9.40072 89.6844 9.73926C90.5177 10.0648 91.2339 10.54 91.8328 11.165C92.4448 11.79 92.92 12.5452 93.2586 13.4307H93.4344V9.7002H101.442V30.6572C101.442 32.1937 100.973 33.5544 100.036 34.7393C99.1115 35.9372 97.7898 36.8747 96.0711 37.5518C94.3523 38.2288 92.3146 38.5674 89.9578 38.5674ZM90.0164 25.1299C90.7195 25.1299 91.3315 24.9476 91.8523 24.583C92.3732 24.2054 92.7703 23.665 93.0437 22.9619C93.3302 22.2588 93.4734 21.4124 93.4734 20.4229V20.4033C93.4734 19.4007 93.3302 18.5479 93.0437 17.8447C92.7573 17.1416 92.3536 16.6077 91.8328 16.2432C91.325 15.8656 90.7195 15.6768 90.0164 15.6768C89.3263 15.6768 88.7208 15.8656 88.2 16.2432C87.6922 16.6077 87.295 17.1416 87.0086 17.8447C86.7221 18.5348 86.5789 19.3812 86.5789 20.3838V20.4033C86.5789 21.3799 86.7156 22.2262 86.9891 22.9424C87.2755 23.6455 87.6792 24.1859 88.2 24.5635C88.7208 24.9411 89.3263 25.1299 90.0164 25.1299ZM115.012 31.7314C112.681 31.7314 110.676 31.2822 108.996 30.3838C107.316 29.4854 106.021 28.1963 105.109 26.5166C104.211 24.8239 103.762 22.8122 103.762 20.4814V20.4619C103.762 18.1182 104.211 16.113 105.109 14.4463C106.008 12.7666 107.277 11.4775 108.918 10.5791C110.572 9.68066 112.518 9.23145 114.758 9.23145C116.997 9.23145 118.938 9.67415 120.578 10.5596C122.232 11.445 123.508 12.695 124.406 14.3096C125.318 15.9242 125.773 17.8252 125.773 20.0127V22.2783H107.668V17.7471H122.062L118.371 22.0049V18.9189C118.371 18.0465 118.228 17.2979 117.941 16.6729C117.668 16.0479 117.277 15.5726 116.77 15.2471C116.262 14.9085 115.663 14.7393 114.973 14.7393C114.283 14.7393 113.684 14.9085 113.176 15.2471C112.668 15.5726 112.271 16.0479 111.984 16.6729C111.711 17.2979 111.574 18.0465 111.574 18.9189V22.0439C111.574 22.9163 111.717 23.665 112.004 24.29C112.29 24.915 112.701 25.3968 113.234 25.7354C113.768 26.0609 114.413 26.2236 115.168 26.2236C115.871 26.2236 116.457 26.113 116.926 25.8916C117.395 25.6572 117.759 25.3903 118.02 25.0908C118.293 24.7913 118.462 24.5374 118.527 24.3291L118.547 24.2705H125.676L125.617 24.5244C125.461 25.2275 125.168 25.9958 124.738 26.8291C124.309 27.6494 123.69 28.4372 122.883 29.1924C122.076 29.9346 121.027 30.5465 119.738 31.0283C118.462 31.4971 116.887 31.7314 115.012 31.7314ZM128.015 31.2627V9.7002H136.023V13.7041H136.179C136.713 12.2458 137.527 11.139 138.62 10.3838C139.714 9.61556 141.075 9.23145 142.702 9.23145C145.072 9.23145 146.895 9.94759 148.171 11.3799C149.46 12.8122 150.105 14.8239 150.105 17.415V31.2627H142.097V19.1729C142.097 18.0921 141.843 17.2393 141.335 16.6143C140.827 15.9893 140.072 15.6768 139.07 15.6768C138.445 15.6768 137.904 15.8265 137.448 16.126C136.993 16.4255 136.641 16.8356 136.394 17.3564C136.146 17.8773 136.023 18.4762 136.023 19.1533V31.2627H128.015ZM152.815 31.2627V9.7002H160.823V31.2627H152.815ZM156.819 7.7666C155.699 7.7666 154.755 7.389 153.987 6.63379C153.232 5.87858 152.854 4.98665 152.854 3.95801C152.854 2.91634 153.232 2.02441 153.987 1.28223C154.755 0.527018 155.699 0.149414 156.819 0.149414C157.939 0.149414 158.876 0.527018 159.631 1.28223C160.399 2.02441 160.784 2.91634 160.784 3.95801C160.784 4.98665 160.399 5.87858 159.631 6.63379C158.876 7.389 157.939 7.7666 156.819 7.7666ZM174.334 31.7314C172.003 31.7314 169.998 31.2822 168.318 30.3838C166.638 29.4854 165.343 28.1963 164.431 26.5166C163.533 24.8239 163.084 22.8122 163.084 20.4814V20.4619C163.084 18.1182 163.533 16.113 164.431 14.4463C165.33 12.7666 166.599 11.4775 168.24 10.5791C169.893 9.68066 171.84 9.23145 174.08 9.23145C176.319 9.23145 178.259 9.67415 179.9 10.5596C181.554 11.445 182.83 12.695 183.728 14.3096C184.64 15.9242 185.095 17.8252 185.095 20.0127V22.2783H166.99V17.7471H181.384L177.693 22.0049V18.9189C177.693 18.0465 177.55 17.2979 177.263 16.6729C176.99 16.0479 176.599 15.5726 176.091 15.2471C175.584 14.9085 174.985 14.7393 174.295 14.7393C173.604 14.7393 173.005 14.9085 172.498 15.2471C171.99 15.5726 171.593 16.0479 171.306 16.6729C171.033 17.2979 170.896 18.0465 170.896 18.9189V22.0439C170.896 22.9163 171.039 23.665 171.326 24.29C171.612 24.915 172.022 25.3968 172.556 25.7354C173.09 26.0609 173.735 26.2236 174.49 26.2236C175.193 26.2236 175.779 26.113 176.248 25.8916C176.716 25.6572 177.081 25.3903 177.341 25.0908C177.615 24.7913 177.784 24.5374 177.849 24.3291L177.869 24.2705H184.998L184.939 24.5244C184.783 25.2275 184.49 25.9958 184.06 26.8291C183.63 27.6494 183.012 28.4372 182.205 29.1924C181.397 29.9346 180.349 30.5465 179.06 31.0283C177.784 31.4971 176.209 31.7314 174.334 31.7314Z" fill="white"/>
</svg>
